<svg width="90" height="137" viewBox="0 0 90 137" fill="none" xmlns="http://www.w3.org/2000/svg">
<path d="M36.341 42.4962C34.7657 42.6238 34.7364 42.8675 36.2464 43.2872C37.6136 43.6674 39.1733 44.3872 40.6526 45.3211L41.4962 45.8537L40.0679 47.2472C38.5002 48.777 37.6862 49.8702 36.7812 51.6622C35.0018 55.1854 34.9303 55.9095 34.9299 70.4453C34.9297 82.3644 34.9453 82.8399 35.3639 83.7047C36.5323 86.1184 40.0581 86.1184 41.2265 83.7047C41.6456 82.839 41.6608 82.3642 41.6608 70.076C41.6608 56.7373 41.6868 56.3097 42.6694 53.5328C43.2011 52.0294 44.5912 49.5063 44.8876 49.5063C45.101 49.5063 46.3185 51.5584 46.8555 52.8232C48.0506 55.6384 48.0284 55.3504 48.1604 69.8082C48.2983 84.9194 48.2225 84.2543 49.9077 85.1139C52.0011 86.182 54.1943 85.1491 54.699 82.8577C54.8696 82.0823 54.9154 78.041 54.8518 69.374C54.7756 59.0367 54.7037 56.7598 54.4154 55.5558C53.6774 52.4747 52.2228 49.8489 49.959 47.5111L48.3422 45.8413L49.5071 45.0996C50.8737 44.2293 52.2247 43.6177 53.6535 43.2223C54.2184 43.0659 54.636 42.8655 54.5811 42.7767C54.3785 42.4488 51.8484 42.3309 49.9859 42.5624C48.93 42.6935 47.3384 43.0453 46.4488 43.3439C44.9165 43.8582 44.7849 43.8693 43.9518 43.5545C41.8701 42.7678 38.601 42.3131 36.341 42.4962Z" fill="#ABDDB1"/>
<path d="M26.4081 30.6231C25.1991 30.8266 21.9141 31.881 21.5217 32.1913C21.0312 32.5793 21.2323 32.9771 22.7105 34.5439C27.5673 39.6923 33.2669 41.1386 40.0323 38.9393C41.9769 38.307 42.3122 38.107 42.3122 37.5792C42.3122 37.1766 39.453 34.2508 38.0781 33.2467C36.6448 32.1997 34.1365 31.0433 32.5868 30.715C31.0256 30.3841 28.0878 30.3404 26.4081 30.6231Z" fill="#5FACA9"/>
<path d="M14.5192 20.1308C13.6452 20.2848 10.57 21.2089 9.72488 21.5717C8.28334 22.1905 8.26401 22.4222 9.54054 23.7721C11.9763 26.3476 15.1743 28.3384 17.9353 28.9983C19.6027 29.3968 23.0238 29.3907 24.9481 28.9859C26.4904 28.6615 29.1429 27.7148 29.6642 27.3029C30.115 26.9466 29.994 26.7258 28.5023 25.1805C26.1423 22.736 23.1904 20.9779 20.3023 20.2967C19.0657 20.0051 15.7709 19.9107 14.5192 20.1308Z" fill="#5FACA9"/>
<path d="M28.5468 45.5095C25.6815 46.2028 23.186 48.2956 21.7115 51.2414C21.2292 52.205 20.8875 53.1311 20.952 53.2994C21.1267 53.7545 23.1873 53.9367 25.0412 53.6609C28.1603 53.1969 30.4596 51.7093 32.2919 48.9698C33.5967 47.019 34.0909 45.67 33.6121 45.3671C33.1429 45.0701 29.9973 45.1586 28.5468 45.5095Z" fill="#5FACA9"/>
<path d="M14.7363 36.6594C13.5447 37.0568 11.3925 38.0751 10.8868 38.4812C10.4903 38.7995 10.8698 39.3527 12.0712 40.2071C14.3162 41.8039 15.8476 42.4436 17.9933 42.6809C20.1494 42.9194 23.6001 41.8817 25.2673 40.4935L25.9187 39.9511L24.8907 38.9968C24.3253 38.472 23.104 37.6695 22.1766 37.2135C20.5917 36.4342 20.3531 36.3806 18.2104 36.3229C16.4525 36.2755 15.6572 36.3526 14.7363 36.6594Z" fill="#5FACA9"/>
<path d="M32.1821 21.1791C31.9332 21.8275 32.7269 25.04 33.547 26.7045C34.9227 29.4962 36.9581 31.1356 40.5499 32.3446C42.4307 32.9779 42.6151 32.8774 42.4336 31.3188C41.9103 26.8313 39.2222 23.2271 35.1965 21.6154C33.372 20.8849 32.3517 20.7373 32.1821 21.1791Z" fill="#5FACA9"/>
<path d="M20.9609 11.2186C20.4843 11.695 21.1222 14.5466 22.2309 16.8977C23.1003 18.7407 24.6704 20.4007 26.4617 21.3702C27.8388 22.1156 30.5529 23.0154 30.9566 22.8606C31.3607 22.7056 31.3046 21.618 30.7987 19.7919C29.608 15.4955 27.1696 12.8823 23.1732 11.6196C21.2909 11.0251 21.1752 11.0041 20.9609 11.2186Z" fill="#5FACA9"/>
<path d="M32.3946 3.52841C31.4091 5.07982 30.5835 7.2948 30.3219 9.09005C30.0157 11.1897 30.4148 13.5862 31.4323 15.7606C32.2131 17.429 33.3752 19.1077 33.7496 19.1077C34.1347 19.1077 35.261 17.2618 35.8814 15.6134C36.8569 13.0215 36.9764 10.0166 36.1999 7.59965C35.634 5.83849 33.6881 2.60559 33.1939 2.60559C33.0769 2.60559 32.7171 3.02097 32.3946 3.52841Z" fill="#5FACA9"/>
<path d="M43.8788 0.739989C41.0396 3.97353 39.9237 7.21641 39.9237 12.2333C39.9237 16.8152 40.5775 19.2669 42.6166 22.3317C43.8614 24.2023 44.5358 24.8348 45.0965 24.6567C45.6788 24.472 47.07 22.6276 48.1724 20.579C48.7917 19.4282 49.2053 18.27 49.4906 16.8877C50.2082 13.4095 49.9511 8.46883 48.908 5.70039C48.0482 3.41789 45.666 0 44.9352 0C44.7115 0 44.2362 0.333082 43.8788 0.739989Z" fill="#5FACA9"/>
<path d="M55.5909 3.96528C53.059 7.85131 52.5813 11.7738 54.1598 15.7167C54.8464 17.4321 55.8843 19.1077 56.2599 19.1077C56.7615 19.1077 58.3974 16.3844 59.0785 14.4155C60.2793 10.9441 59.9434 7.81939 57.9842 4.23409C57.5273 3.39813 57.0043 2.68528 56.8217 2.65011C56.6162 2.61037 56.1468 3.11238 55.5909 3.96528Z" fill="#5FACA9"/>
<path d="M56.0159 21.188C53.4769 21.8707 50.7574 23.8566 49.3859 26.0292C48.5042 27.4258 47.7757 29.522 47.61 31.1388C47.4302 32.8945 47.5811 32.991 49.5028 32.3463C52.9489 31.1905 55.2331 29.3284 56.5237 26.6224C57.302 24.9911 58.1017 21.781 57.8761 21.1935C57.7167 20.7781 57.5421 20.7774 56.0159 21.188Z" fill="#5FACA9"/>
<path d="M57.4029 30.7045C55.0236 31.2511 52.9135 32.378 50.4801 34.4021C49.09 35.5583 47.5127 37.5008 47.6576 37.8782C47.8165 38.2925 50.3841 39.2092 52.5207 39.6144C57.3245 40.5257 61.4216 39.5167 65.1598 36.5018C66.8551 35.1345 68.8024 33.0522 68.8024 32.6064C68.8024 32.2705 67.9247 31.8525 65.7625 31.1581C63.4996 30.4318 59.5293 30.2162 57.4029 30.7045Z" fill="#5FACA9"/>
<path d="M56.3535 45.3085C56.0467 45.6151 56.2384 46.3518 57.014 47.8461C58.0435 49.8296 60.0352 51.8311 61.8843 52.7396C64.2956 53.9245 68.78 54.1727 68.9802 53.1326C69.0202 52.9248 68.6958 52.0322 68.2593 51.1487C66.8304 48.2565 63.8654 45.9681 60.7922 45.3853C59.4809 45.1365 56.5756 45.0863 56.3535 45.3085Z" fill="#5FACA9"/>
<path d="M69.3452 36.5656C67.5402 37.138 64.2426 39.2793 64.2426 39.8791C64.2426 40.3027 65.8457 41.3905 67.251 41.9205C70.1881 43.0284 72.825 42.9537 75.5042 41.6865C77.1846 40.8918 79.2248 39.3564 79.2248 38.8863C79.2248 38.4451 76.8 37.1004 75.114 36.6067C73.704 36.1937 70.5883 36.1715 69.3452 36.5656Z" fill="#5FACA9"/>
<path d="M69.3153 20.3923C66.4708 21.1642 63.9087 22.751 61.4229 25.2806C59.7267 27.0068 59.7675 27.1894 62.045 28.0686C66.7559 29.887 71.7126 29.7327 75.5335 27.6482C77.909 26.3523 81.3961 23.2313 81.3961 22.401C81.3961 22.0375 79.9357 21.3589 77.7748 20.7184C75.1257 19.933 71.5202 19.7941 69.3153 20.3923Z" fill="#5FACA9"/>
<path d="M66.8106 11.5973C63.9067 12.5772 61.5962 14.4448 60.2752 16.8801C59.2501 18.7701 58.4632 22.5564 59.0236 22.9027C59.3031 23.0754 62.3499 22.0414 63.6583 21.3296C65.3202 20.4259 67.3161 18.1482 68.103 16.2578C68.8278 14.5173 69.3845 11.9894 69.1678 11.4247C68.9937 10.9706 68.5768 11.0013 66.8106 11.5973Z" fill="#5FACA9"/>
<path d="M0.0650764 95.824C0.0036278 95.9845 -0.0183042 96.9874 0.0166542 98.0527L0.07984 99.9897L2.41402 100.051L4.7482 100.113V108.682V117.252H7.24523H9.74225V108.682V100.113L12.0764 100.051L14.4106 99.9897V97.8184V95.647L7.29386 95.5897C1.49837 95.5433 0.156272 95.5867 0.0650764 95.824Z" fill="#60ABA7"/>
<path fill-rule="evenodd" clip-rule="evenodd" d="M14.1309 127.348C14.983 125.72 16.6521 124.271 18.2365 123.785C19.1623 123.501 22.035 123.633 22.8245 123.995C23.4019 124.261 23.4216 124.326 23.4216 125.975V127.68L22.5314 127.091C20.8293 125.965 18.3108 126.44 17.2937 128.08C16.2328 129.791 16.4899 132.066 17.8823 133.289C19.107 134.364 21.313 134.488 22.5776 133.553C22.9127 133.305 23.2397 133.102 23.3044 133.102C23.3689 133.102 23.4216 133.869 23.4216 134.805V136.508L22.5822 136.759C21.416 137.109 19.3684 137.073 18.0469 136.681C16.4354 136.202 14.9083 134.907 14.1611 133.386C13.6237 132.292 13.5434 131.882 13.5525 130.28C13.5612 128.723 13.6519 128.264 14.1309 127.348ZM2.46743 130.497C3.74895 127.332 4.88152 124.523 4.98444 124.254C5.15141 123.819 5.32099 123.766 6.54823 123.766H7.92463L10.3444 129.9C11.6752 133.274 12.8275 136.205 12.905 136.414C13.0307 136.753 12.8809 136.794 11.4997 136.794H9.95396L9.42263 135.592L8.89131 134.391L6.46876 134.452L4.04642 134.514L3.58306 135.654L3.1197 136.793L1.52225 136.794C0.33215 136.794 -0.0480511 136.724 0.0312024 136.522C0.0898283 136.373 1.18613 133.662 2.46743 130.497ZM27.4668 129.211C28.5972 126.413 29.5721 124.044 29.6331 123.945C29.6942 123.847 30.349 123.767 31.0884 123.769L32.4326 123.773L34.9067 130.054C36.2674 133.508 37.3911 136.414 37.4037 136.51C37.4163 136.606 36.733 136.714 35.8848 136.748L34.3432 136.812L33.907 135.663L33.471 134.514L31.0432 134.452L28.6152 134.391L28.0839 135.592L27.5526 136.794H26.03C25.1926 136.794 24.5073 136.704 24.5073 136.595C24.5073 136.485 24.7107 135.923 24.9594 135.346C25.2078 134.769 26.3362 132.008 27.4668 129.211ZM38.8889 130.5C38.8572 127.098 38.8832 124.178 38.9471 124.012C39.0413 123.767 39.6197 123.732 42.0447 123.827C45.4254 123.959 46.1934 124.156 47.6658 125.269C49.2344 126.454 49.9933 128.078 49.987 130.237C49.9809 132.318 49.3827 133.82 48.0831 135.018C46.5938 136.391 45.5173 136.685 41.9865 136.685H38.9466L38.8889 130.5ZM52.3003 136.794V130.275V123.755L55.9373 123.815L59.5742 123.874L59.6394 125.123L59.7045 126.371H57.5115H55.3184L55.3836 127.601L55.4487 128.831L57.4029 128.849L59.3571 128.868L59.4223 130.117L59.4874 131.365H57.4138H55.3402V132.777V134.188H57.5115H59.6828V135.491V136.794H55.9916H52.3003ZM61.4199 136.673C61.4199 136.074 63.3823 124.146 63.5165 123.929C63.5717 123.839 64.1393 123.766 64.7778 123.766H65.9389L66.9201 126.1C67.4596 127.384 68.1708 129.095 68.5004 129.903C68.8298 130.711 69.1626 131.297 69.2399 131.206C69.3172 131.115 70.0003 129.525 70.7581 127.674C71.5157 125.823 72.2281 124.187 72.3412 124.037C72.4604 123.88 73.0319 123.766 73.6998 123.766C73.746 123.766 73.7904 123.766 73.8333 123.766C74.2777 123.764 74.5488 123.764 74.7317 123.89C75.0178 124.089 75.088 124.598 75.2682 125.905L75.2876 126.045L75.3027 126.154C75.4269 127.05 75.8553 129.771 76.2544 132.201C76.7918 135.472 76.913 136.644 76.721 136.718C76.5786 136.772 75.8866 136.787 75.1835 136.751L73.905 136.685L73.4388 133.252C73.1824 131.363 72.9258 129.771 72.8682 129.713C72.8107 129.656 72.0889 131.201 71.264 133.147C69.8346 136.52 69.7361 136.685 69.1568 136.685C68.5798 136.685 68.4793 136.521 67.1659 133.428C66.4048 131.637 65.778 130.049 65.7725 129.9C65.7595 129.547 65.3283 129.544 65.3283 129.896C65.3283 130.044 65.1798 131.241 64.9982 132.556C64.8169 133.872 64.6154 135.363 64.5507 135.871L64.433 136.794H62.9266C62.0978 136.794 61.4199 136.739 61.4199 136.673ZM80.0677 127.415C78.8876 125.661 77.922 124.118 77.922 123.986C77.922 123.828 78.4867 123.769 79.6048 123.811L81.2875 123.874L82.5441 125.72C83.2352 126.735 83.8521 127.566 83.9148 127.566C83.9776 127.566 84.5858 126.735 85.2661 125.72L86.5033 123.874L88.1837 123.811C89.3121 123.768 89.8643 123.827 89.8643 123.989C89.8643 124.123 88.9115 125.617 87.7472 127.31L85.6302 130.388L85.5216 133.537L85.4131 136.685L83.9474 136.749C83.1414 136.785 82.4763 136.785 82.4698 136.749C82.4633 136.714 82.403 135.317 82.3356 133.645L82.2134 130.605L80.0677 127.415ZM46.872 130.44C46.872 128.835 46.236 127.583 45.1367 127.026C44.7178 126.814 43.8619 126.57 43.235 126.485C42.2182 126.347 42.094 126.374 42.0842 126.731C42.0744 127.091 42.0799 133.214 42.0907 133.943C42.0977 134.415 44.5582 134.161 45.3006 133.611C46.4114 132.788 46.872 131.859 46.872 130.44ZM8.00519 131.92C8.00519 131.866 7.70272 130.987 7.33316 129.965C6.9636 128.944 6.61923 128.108 6.56799 128.108C6.51653 128.108 6.37105 128.377 6.24446 128.706C5.34835 131.03 5.18268 131.505 5.18268 131.745C5.18246 131.935 5.60935 132.017 6.59383 132.017C7.37008 132.017 8.00519 131.973 8.00519 131.92ZM32.5049 131.844C32.4652 131.75 32.1471 130.87 31.798 129.89C31.4488 128.91 31.106 128.108 31.036 128.108C30.9199 128.108 30.0294 130.359 29.6835 131.528C29.5433 132.002 29.5845 132.017 31.0582 132.017C31.8937 132.017 32.5449 131.939 32.5049 131.844Z" fill="#A7DFB1"/>
<path d="M70.9081 95.6766C70.8248 95.7597 70.7566 100.648 70.7566 106.54V117.252H73.3578H75.9591L76.0177 112.68L76.0763 108.108L79.7676 112.68L83.4589 117.251L86.6616 117.252C88.423 117.252 89.8643 117.171 89.8643 117.072C89.8643 116.973 87.8093 114.429 85.2978 111.417C82.541 108.112 80.7931 105.841 80.8874 105.688C80.9736 105.549 82.882 103.3 85.1284 100.691C87.3749 98.0811 89.2129 95.8544 89.2129 95.7424C89.2129 95.6251 87.9335 95.5385 86.2032 95.5385H83.1937L79.5854 99.8909L75.9771 104.243L75.9181 99.9452L75.8592 95.647L73.4595 95.586C72.1395 95.5526 70.9913 95.5932 70.9081 95.6766Z" fill="#61ABA7"/>
<path d="M61.1372 95.6766C61.0538 95.7597 60.9856 100.652 60.9856 106.547V117.265L63.5369 117.204L66.0882 117.143V106.395V95.647L63.6885 95.586C62.3685 95.5526 61.2203 95.5932 61.1372 95.6766Z" fill="#61ABA7"/>
<path fill-rule="evenodd" clip-rule="evenodd" d="M24.073 95.4445C19.8702 96.3545 16.5769 99.6388 15.5962 103.898C14.9341 106.773 15.5154 110.176 17.0829 112.601C19.2188 115.906 22.7307 117.686 27.1129 117.686C30.701 117.686 33.4777 116.602 35.6896 114.338C37.9298 112.046 38.8402 109.75 38.8355 106.404C38.8309 103.102 37.869 100.673 35.7113 98.5156C32.8272 95.6314 28.4921 94.4873 24.073 95.4445ZM33.0832 103.643C32.6252 102.544 31.37 101.269 30.1111 100.625C28.9887 100.051 26.6246 99.7737 25.4401 100.078C23.568 100.559 21.9862 101.854 21.1723 103.572C20.5403 104.907 20.5097 108.087 21.1181 109.218C21.86 110.597 22.7227 111.511 23.8941 112.16C24.9465 112.743 25.2349 112.801 27.1129 112.801C29.0187 112.801 29.2666 112.749 30.3699 112.127C32.6139 110.861 33.8056 108.505 33.5554 105.827C33.486 105.082 33.2734 104.1 33.0832 103.643Z" fill="#61ABA7"/>
<path fill-rule="evenodd" clip-rule="evenodd" d="M42.4247 96.004C42.3563 96.2854 42.3274 101.157 42.3606 106.829L42.4208 117.143L44.9669 117.204L47.5132 117.265L47.5724 113.513L47.6319 109.761L50.0204 109.696C54.5116 109.573 56.661 108.272 57.5968 105.107C58.747 101.219 57.123 97.4881 53.7117 96.1799C52.5246 95.7246 51.9711 95.6718 47.4791 95.5862L42.5491 95.4922L42.4247 96.004ZM52.5174 102.537C52.5174 101.213 51.9679 100.424 50.8249 100.107C50.3824 99.9841 49.4556 99.8831 48.7654 99.8824L47.5103 99.8811L47.5711 102.65L47.6319 105.418L49.0433 105.417C51.534 105.415 52.5174 104.6 52.5174 102.537Z" fill="#60ABA7"/>
</svg>
